<mxfile host="app.diagrams.net" agent="Mozilla/5.0 (Windows NT 10.0; Win64; x64) AppleWebKit/537.36 (KHTML, like Gecko) Chrome/133.0.0.0 Safari/537.36" version="26.0.11">
  <diagram name="Page-1" id="sn6DJlkJc5EVumjyPLRW">
    <mxGraphModel dx="3190" dy="1300" grid="1" gridSize="10" guides="1" tooltips="1" connect="1" arrows="1" fold="1" page="1" pageScale="1" pageWidth="850" pageHeight="1100" background="#D5E8D4" math="0" shadow="0">
      <root>
        <mxCell id="0" />
        <mxCell id="1" parent="0" />
        <mxCell id="ZoZdUlyOZkNPBXaQTwTG-1" value="Customer_Bank" style="rounded=0;whiteSpace=wrap;html=1;fontSize=12;fillColor=#f8cecc;strokeColor=#b85450;" parent="1" vertex="1">
          <mxGeometry x="60" y="360" width="180" height="40" as="geometry" />
        </mxCell>
        <mxCell id="ZoZdUlyOZkNPBXaQTwTG-2" value="Customer_Personal_Details" style="rounded=0;whiteSpace=wrap;html=1;fontSize=12;fillColor=#f8cecc;strokeColor=#b85450;" parent="1" vertex="1">
          <mxGeometry x="690" y="380" width="170" height="40" as="geometry" />
        </mxCell>
        <mxCell id="ZoZdUlyOZkNPBXaQTwTG-3" value="Employee" style="rounded=0;whiteSpace=wrap;html=1;fontSize=12;fillColor=#f8cecc;strokeColor=#b85450;" parent="1" vertex="1">
          <mxGeometry x="70" y="690" width="160" height="40" as="geometry" />
        </mxCell>
        <mxCell id="ZoZdUlyOZkNPBXaQTwTG-4" value="Employee_Personal_Details" style="rounded=0;whiteSpace=wrap;html=1;fontSize=12;fillColor=#f8cecc;strokeColor=#b85450;" parent="1" vertex="1">
          <mxGeometry x="750" y="770" width="190" height="40" as="geometry" />
        </mxCell>
        <mxCell id="MGR4saQOaBrWju6GWBrJ-1" style="edgeStyle=orthogonalEdgeStyle;rounded=0;orthogonalLoop=1;jettySize=auto;html=1;exitX=0.5;exitY=1;exitDx=0;exitDy=0;fontSize=12;fillColor=#fff2cc;strokeColor=#d6b656;" edge="1" parent="1" source="ZoZdUlyOZkNPBXaQTwTG-2" target="ZoZdUlyOZkNPBXaQTwTG-2">
          <mxGeometry relative="1" as="geometry" />
        </mxCell>
        <mxCell id="MGR4saQOaBrWju6GWBrJ-2" value="Customer_Security_Details" style="rounded=0;whiteSpace=wrap;html=1;fontSize=12;fillColor=#f8cecc;strokeColor=#b85450;" vertex="1" parent="1">
          <mxGeometry x="380" y="230" width="160" height="40" as="geometry" />
        </mxCell>
        <mxCell id="MGR4saQOaBrWju6GWBrJ-3" value="Employee_Security_Details" style="rounded=0;whiteSpace=wrap;html=1;fontSize=12;fillColor=#f8cecc;strokeColor=#b85450;" vertex="1" parent="1">
          <mxGeometry x="360" y="800" width="160" height="50" as="geometry" />
        </mxCell>
        <mxCell id="MGR4saQOaBrWju6GWBrJ-4" value="Acc_No" style="ellipse;whiteSpace=wrap;html=1;fontSize=12;fillColor=#fff2cc;strokeColor=#d6b656;" vertex="1" parent="1">
          <mxGeometry x="-29" y="260" width="70" height="50" as="geometry" />
        </mxCell>
        <mxCell id="MGR4saQOaBrWju6GWBrJ-5" value="Balance" style="ellipse;whiteSpace=wrap;html=1;fontSize=12;fillColor=#fff2cc;strokeColor=#d6b656;" vertex="1" parent="1">
          <mxGeometry x="50" y="240" width="70" height="50" as="geometry" />
        </mxCell>
        <mxCell id="MGR4saQOaBrWju6GWBrJ-6" value="" style="endArrow=none;html=1;rounded=0;entryX=0.5;entryY=1;entryDx=0;entryDy=0;exitX=0;exitY=0;exitDx=0;exitDy=0;fontSize=12;fillColor=#fff2cc;strokeColor=#d6b656;" edge="1" parent="1" source="ZoZdUlyOZkNPBXaQTwTG-1" target="MGR4saQOaBrWju6GWBrJ-4">
          <mxGeometry width="50" height="50" relative="1" as="geometry">
            <mxPoint x="-30" y="380" as="sourcePoint" />
            <mxPoint x="20" y="330" as="targetPoint" />
          </mxGeometry>
        </mxCell>
        <mxCell id="MGR4saQOaBrWju6GWBrJ-7" value="" style="endArrow=none;html=1;rounded=0;entryX=0.5;entryY=1;entryDx=0;entryDy=0;exitX=0.111;exitY=0;exitDx=0;exitDy=0;exitPerimeter=0;fontSize=12;fillColor=#fff2cc;strokeColor=#d6b656;" edge="1" parent="1" source="ZoZdUlyOZkNPBXaQTwTG-1" target="MGR4saQOaBrWju6GWBrJ-5">
          <mxGeometry width="50" height="50" relative="1" as="geometry">
            <mxPoint x="40" y="340" as="sourcePoint" />
            <mxPoint x="100" y="300" as="targetPoint" />
          </mxGeometry>
        </mxCell>
        <mxCell id="MGR4saQOaBrWju6GWBrJ-8" value="Customer_ID" style="ellipse;whiteSpace=wrap;html=1;fontSize=12;fillColor=#fff2cc;strokeColor=#d6b656;" vertex="1" parent="1">
          <mxGeometry x="290" y="140" width="80" height="50" as="geometry" />
        </mxCell>
        <mxCell id="MGR4saQOaBrWju6GWBrJ-9" value="Login_Password" style="ellipse;whiteSpace=wrap;html=1;fontSize=12;fillColor=#fff2cc;strokeColor=#d6b656;" vertex="1" parent="1">
          <mxGeometry x="390" y="120" width="100" height="50" as="geometry" />
        </mxCell>
        <mxCell id="MGR4saQOaBrWju6GWBrJ-10" value="" style="endArrow=none;html=1;rounded=0;entryX=0.5;entryY=1;entryDx=0;entryDy=0;exitX=0;exitY=0;exitDx=0;exitDy=0;fontSize=12;fillColor=#fff2cc;strokeColor=#d6b656;" edge="1" parent="1" source="MGR4saQOaBrWju6GWBrJ-2" target="MGR4saQOaBrWju6GWBrJ-8">
          <mxGeometry width="50" height="50" relative="1" as="geometry">
            <mxPoint x="290" y="280" as="sourcePoint" />
            <mxPoint x="340" y="230" as="targetPoint" />
          </mxGeometry>
        </mxCell>
        <mxCell id="MGR4saQOaBrWju6GWBrJ-11" value="" style="endArrow=none;html=1;rounded=0;entryX=0.5;entryY=1;entryDx=0;entryDy=0;exitX=0.25;exitY=0;exitDx=0;exitDy=0;fontSize=12;fillColor=#fff2cc;strokeColor=#d6b656;" edge="1" parent="1" source="MGR4saQOaBrWju6GWBrJ-2" target="MGR4saQOaBrWju6GWBrJ-9">
          <mxGeometry width="50" height="50" relative="1" as="geometry">
            <mxPoint x="410" y="220" as="sourcePoint" />
            <mxPoint x="345" y="200" as="targetPoint" />
          </mxGeometry>
        </mxCell>
        <mxCell id="MGR4saQOaBrWju6GWBrJ-12" value="Name" style="ellipse;whiteSpace=wrap;html=1;fontSize=12;fillColor=#fff2cc;strokeColor=#d6b656;" vertex="1" parent="1">
          <mxGeometry x="710" y="260" width="70" height="40" as="geometry" />
        </mxCell>
        <mxCell id="MGR4saQOaBrWju6GWBrJ-13" value="Father Name" style="ellipse;whiteSpace=wrap;html=1;fontSize=12;fillColor=#fff2cc;strokeColor=#d6b656;" vertex="1" parent="1">
          <mxGeometry x="800" y="230" width="70" height="40" as="geometry" />
        </mxCell>
        <mxCell id="MGR4saQOaBrWju6GWBrJ-14" value="Mother Name" style="ellipse;whiteSpace=wrap;html=1;fontSize=12;fillColor=#fff2cc;strokeColor=#d6b656;" vertex="1" parent="1">
          <mxGeometry x="900" y="230" width="70" height="40" as="geometry" />
        </mxCell>
        <mxCell id="MGR4saQOaBrWju6GWBrJ-15" value="Pan No" style="ellipse;whiteSpace=wrap;html=1;fontSize=12;fillColor=#fff2cc;strokeColor=#d6b656;" vertex="1" parent="1">
          <mxGeometry x="1050" y="290" width="70" height="40" as="geometry" />
        </mxCell>
        <mxCell id="MGR4saQOaBrWju6GWBrJ-16" value="Aadhar No" style="ellipse;whiteSpace=wrap;html=1;fontSize=12;fillColor=#fff2cc;strokeColor=#d6b656;" vertex="1" parent="1">
          <mxGeometry x="1070" y="350" width="70" height="40" as="geometry" />
        </mxCell>
        <mxCell id="MGR4saQOaBrWju6GWBrJ-17" value="Phone No" style="ellipse;whiteSpace=wrap;html=1;fontSize=12;fillColor=#fff2cc;strokeColor=#d6b656;" vertex="1" parent="1">
          <mxGeometry x="970" y="490" width="70" height="40" as="geometry" />
        </mxCell>
        <mxCell id="MGR4saQOaBrWju6GWBrJ-18" value="Forgot Password Question" style="ellipse;whiteSpace=wrap;html=1;fontSize=12;fillColor=#fff2cc;strokeColor=#d6b656;" vertex="1" parent="1">
          <mxGeometry x="510" y="120" width="120" height="50" as="geometry" />
        </mxCell>
        <mxCell id="MGR4saQOaBrWju6GWBrJ-19" value="Forgot Password Answer" style="ellipse;whiteSpace=wrap;html=1;fontSize=12;fillColor=#fff2cc;strokeColor=#d6b656;" vertex="1" parent="1">
          <mxGeometry x="560" y="180" width="120" height="50" as="geometry" />
        </mxCell>
        <mxCell id="MGR4saQOaBrWju6GWBrJ-20" value="" style="endArrow=none;html=1;rounded=0;entryX=0;entryY=1;entryDx=0;entryDy=0;exitX=0.75;exitY=0;exitDx=0;exitDy=0;fontSize=12;fillColor=#fff2cc;strokeColor=#d6b656;" edge="1" parent="1" source="MGR4saQOaBrWju6GWBrJ-2" target="MGR4saQOaBrWju6GWBrJ-18">
          <mxGeometry width="50" height="50" relative="1" as="geometry">
            <mxPoint x="400" y="360" as="sourcePoint" />
            <mxPoint x="450" y="310" as="targetPoint" />
          </mxGeometry>
        </mxCell>
        <mxCell id="MGR4saQOaBrWju6GWBrJ-21" value="" style="endArrow=none;html=1;rounded=0;entryX=0;entryY=1;entryDx=0;entryDy=0;exitX=1;exitY=0.5;exitDx=0;exitDy=0;fontSize=12;fillColor=#fff2cc;strokeColor=#d6b656;" edge="1" parent="1" source="MGR4saQOaBrWju6GWBrJ-2" target="MGR4saQOaBrWju6GWBrJ-19">
          <mxGeometry width="50" height="50" relative="1" as="geometry">
            <mxPoint x="533" y="330" as="sourcePoint" />
            <mxPoint x="560" y="262" as="targetPoint" />
          </mxGeometry>
        </mxCell>
        <mxCell id="MGR4saQOaBrWju6GWBrJ-22" value="Email" style="ellipse;whiteSpace=wrap;html=1;fontSize=12;fillColor=#fff2cc;strokeColor=#d6b656;" vertex="1" parent="1">
          <mxGeometry x="880" y="500" width="70" height="40" as="geometry" />
        </mxCell>
        <mxCell id="MGR4saQOaBrWju6GWBrJ-23" value="DOB" style="ellipse;whiteSpace=wrap;html=1;fontSize=12;fillColor=#fff2cc;strokeColor=#d6b656;" vertex="1" parent="1">
          <mxGeometry x="800" y="520" width="70" height="40" as="geometry" />
        </mxCell>
        <mxCell id="MGR4saQOaBrWju6GWBrJ-24" value="User_ID" style="ellipse;whiteSpace=wrap;html=1;fontSize=12;fillColor=#fff2cc;strokeColor=#d6b656;" vertex="1" parent="1">
          <mxGeometry x="140" y="240" width="70" height="50" as="geometry" />
        </mxCell>
        <mxCell id="MGR4saQOaBrWju6GWBrJ-25" value="" style="endArrow=none;html=1;rounded=0;exitX=0.5;exitY=0;exitDx=0;exitDy=0;exitPerimeter=0;entryX=0.5;entryY=1;entryDx=0;entryDy=0;fontSize=12;fillColor=#fff2cc;strokeColor=#d6b656;" edge="1" parent="1" source="ZoZdUlyOZkNPBXaQTwTG-1" target="MGR4saQOaBrWju6GWBrJ-24">
          <mxGeometry width="50" height="50" relative="1" as="geometry">
            <mxPoint x="160" y="350" as="sourcePoint" />
            <mxPoint x="210" y="300" as="targetPoint" />
          </mxGeometry>
        </mxCell>
        <mxCell id="MGR4saQOaBrWju6GWBrJ-26" value="Acc_Type" style="ellipse;whiteSpace=wrap;html=1;fontSize=12;fillColor=#fff2cc;strokeColor=#d6b656;" vertex="1" parent="1">
          <mxGeometry x="220" y="260" width="70" height="50" as="geometry" />
        </mxCell>
        <mxCell id="MGR4saQOaBrWju6GWBrJ-27" value="Address" style="ellipse;whiteSpace=wrap;html=1;fontSize=12;fillColor=#fff2cc;strokeColor=#d6b656;" vertex="1" parent="1">
          <mxGeometry x="1040" y="460" width="70" height="40" as="geometry" />
        </mxCell>
        <mxCell id="MGR4saQOaBrWju6GWBrJ-29" value="Acc_Status" style="ellipse;whiteSpace=wrap;html=1;fontSize=12;fillColor=#fff2cc;strokeColor=#d6b656;" vertex="1" parent="1">
          <mxGeometry x="-50" y="355" width="70" height="50" as="geometry" />
        </mxCell>
        <mxCell id="MGR4saQOaBrWju6GWBrJ-30" value="Acc Opening Date" style="ellipse;whiteSpace=wrap;html=1;fontSize=12;fillColor=#fff2cc;strokeColor=#d6b656;" vertex="1" parent="1">
          <mxGeometry x="-50" y="430" width="70" height="50" as="geometry" />
        </mxCell>
        <mxCell id="MGR4saQOaBrWju6GWBrJ-31" value="" style="endArrow=none;html=1;rounded=0;entryX=1;entryY=0.5;entryDx=0;entryDy=0;exitX=0;exitY=0.5;exitDx=0;exitDy=0;fontSize=12;fillColor=#fff2cc;strokeColor=#d6b656;" edge="1" parent="1" source="ZoZdUlyOZkNPBXaQTwTG-1" target="MGR4saQOaBrWju6GWBrJ-29">
          <mxGeometry width="50" height="50" relative="1" as="geometry">
            <mxPoint x="50" y="470" as="sourcePoint" />
            <mxPoint x="100" y="420" as="targetPoint" />
          </mxGeometry>
        </mxCell>
        <mxCell id="MGR4saQOaBrWju6GWBrJ-32" value="" style="endArrow=none;html=1;rounded=0;exitX=0;exitY=1;exitDx=0;exitDy=0;entryX=1;entryY=0.5;entryDx=0;entryDy=0;fontSize=12;fillColor=#fff2cc;strokeColor=#d6b656;" edge="1" parent="1" source="ZoZdUlyOZkNPBXaQTwTG-1" target="MGR4saQOaBrWju6GWBrJ-30">
          <mxGeometry width="50" height="50" relative="1" as="geometry">
            <mxPoint x="70" y="390" as="sourcePoint" />
            <mxPoint x="60" y="455" as="targetPoint" />
          </mxGeometry>
        </mxCell>
        <mxCell id="MGR4saQOaBrWju6GWBrJ-33" value="" style="endArrow=none;html=1;rounded=0;exitX=0.359;exitY=1.019;exitDx=0;exitDy=0;entryX=0.75;entryY=0;entryDx=0;entryDy=0;exitPerimeter=0;fontSize=12;fillColor=#fff2cc;strokeColor=#d6b656;" edge="1" parent="1" source="MGR4saQOaBrWju6GWBrJ-26" target="ZoZdUlyOZkNPBXaQTwTG-1">
          <mxGeometry width="50" height="50" relative="1" as="geometry">
            <mxPoint x="290" y="315" as="sourcePoint" />
            <mxPoint x="250" y="370" as="targetPoint" />
          </mxGeometry>
        </mxCell>
        <mxCell id="MGR4saQOaBrWju6GWBrJ-34" value="Emp_ID" style="ellipse;whiteSpace=wrap;html=1;fontSize=12;fillColor=#fff2cc;strokeColor=#d6b656;" vertex="1" parent="1">
          <mxGeometry x="250" y="880" width="70" height="50" as="geometry" />
        </mxCell>
        <mxCell id="MGR4saQOaBrWju6GWBrJ-35" value="Login_Password" style="ellipse;whiteSpace=wrap;html=1;fontSize=12;fillColor=#fff2cc;strokeColor=#d6b656;" vertex="1" parent="1">
          <mxGeometry x="320" y="940" width="100" height="50" as="geometry" />
        </mxCell>
        <mxCell id="MGR4saQOaBrWju6GWBrJ-38" value="Forgot Password Question" style="ellipse;whiteSpace=wrap;html=1;fontSize=12;fillColor=#fff2cc;strokeColor=#d6b656;" vertex="1" parent="1">
          <mxGeometry x="450" y="940" width="120" height="50" as="geometry" />
        </mxCell>
        <mxCell id="MGR4saQOaBrWju6GWBrJ-39" value="Forgot Password Answer" style="ellipse;whiteSpace=wrap;html=1;fontSize=12;fillColor=#fff2cc;strokeColor=#d6b656;" vertex="1" parent="1">
          <mxGeometry x="530" y="870" width="120" height="50" as="geometry" />
        </mxCell>
        <mxCell id="MGR4saQOaBrWju6GWBrJ-42" value="" style="endArrow=none;html=1;rounded=0;entryX=0;entryY=1;entryDx=0;entryDy=0;exitX=0.25;exitY=0;exitDx=0;exitDy=0;fontSize=12;fillColor=#fff2cc;strokeColor=#d6b656;" edge="1" parent="1" source="ZoZdUlyOZkNPBXaQTwTG-2" target="MGR4saQOaBrWju6GWBrJ-12">
          <mxGeometry width="50" height="50" relative="1" as="geometry">
            <mxPoint x="580" y="390" as="sourcePoint" />
            <mxPoint x="630" y="340" as="targetPoint" />
          </mxGeometry>
        </mxCell>
        <mxCell id="MGR4saQOaBrWju6GWBrJ-43" value="" style="endArrow=none;html=1;rounded=0;entryX=0;entryY=1;entryDx=0;entryDy=0;fontSize=12;fillColor=#fff2cc;strokeColor=#d6b656;" edge="1" parent="1" target="MGR4saQOaBrWju6GWBrJ-13">
          <mxGeometry width="50" height="50" relative="1" as="geometry">
            <mxPoint x="760" y="380" as="sourcePoint" />
            <mxPoint x="791" y="304" as="targetPoint" />
          </mxGeometry>
        </mxCell>
        <mxCell id="MGR4saQOaBrWju6GWBrJ-44" value="" style="endArrow=none;html=1;rounded=0;entryX=0;entryY=0.5;entryDx=0;entryDy=0;exitX=0.636;exitY=-0.006;exitDx=0;exitDy=0;exitPerimeter=0;fontSize=12;fillColor=#fff2cc;strokeColor=#d6b656;" edge="1" parent="1" source="ZoZdUlyOZkNPBXaQTwTG-2" target="MGR4saQOaBrWju6GWBrJ-14">
          <mxGeometry width="50" height="50" relative="1" as="geometry">
            <mxPoint x="820" y="360" as="sourcePoint" />
            <mxPoint x="871" y="294" as="targetPoint" />
          </mxGeometry>
        </mxCell>
        <mxCell id="MGR4saQOaBrWju6GWBrJ-45" value="" style="endArrow=none;html=1;rounded=0;entryX=0;entryY=0.5;entryDx=0;entryDy=0;fontSize=12;fillColor=#fff2cc;strokeColor=#d6b656;" edge="1" parent="1" target="MGR4saQOaBrWju6GWBrJ-15">
          <mxGeometry width="50" height="50" relative="1" as="geometry">
            <mxPoint x="830" y="380" as="sourcePoint" />
            <mxPoint x="940" y="300" as="targetPoint" />
          </mxGeometry>
        </mxCell>
        <mxCell id="MGR4saQOaBrWju6GWBrJ-46" value="" style="endArrow=none;html=1;rounded=0;entryX=0.011;entryY=0.322;entryDx=0;entryDy=0;entryPerimeter=0;exitX=1;exitY=0.5;exitDx=0;exitDy=0;fontSize=12;fillColor=#fff2cc;strokeColor=#d6b656;" edge="1" parent="1" source="ZoZdUlyOZkNPBXaQTwTG-2" target="MGR4saQOaBrWju6GWBrJ-16">
          <mxGeometry width="50" height="50" relative="1" as="geometry">
            <mxPoint x="840" y="390" as="sourcePoint" />
            <mxPoint x="990" y="360" as="targetPoint" />
          </mxGeometry>
        </mxCell>
        <mxCell id="MGR4saQOaBrWju6GWBrJ-47" value="" style="endArrow=none;html=1;rounded=0;entryX=0;entryY=0;entryDx=0;entryDy=0;exitX=1;exitY=1;exitDx=0;exitDy=0;fontSize=12;fillColor=#fff2cc;strokeColor=#d6b656;" edge="1" parent="1" source="ZoZdUlyOZkNPBXaQTwTG-2" target="MGR4saQOaBrWju6GWBrJ-27">
          <mxGeometry width="50" height="50" relative="1" as="geometry">
            <mxPoint x="870" y="410" as="sourcePoint" />
            <mxPoint x="1001" y="423" as="targetPoint" />
          </mxGeometry>
        </mxCell>
        <mxCell id="MGR4saQOaBrWju6GWBrJ-48" value="" style="endArrow=none;html=1;rounded=0;entryX=0.5;entryY=0;entryDx=0;entryDy=0;exitX=0.824;exitY=1;exitDx=0;exitDy=0;exitPerimeter=0;fontSize=12;fillColor=#fff2cc;strokeColor=#d6b656;" edge="1" parent="1" source="ZoZdUlyOZkNPBXaQTwTG-2" target="MGR4saQOaBrWju6GWBrJ-17">
          <mxGeometry width="50" height="50" relative="1" as="geometry">
            <mxPoint x="870" y="430" as="sourcePoint" />
            <mxPoint x="991" y="476" as="targetPoint" />
          </mxGeometry>
        </mxCell>
        <mxCell id="MGR4saQOaBrWju6GWBrJ-49" value="" style="endArrow=none;html=1;rounded=0;entryX=0.5;entryY=0;entryDx=0;entryDy=0;exitX=0.75;exitY=1;exitDx=0;exitDy=0;fontSize=12;fillColor=#fff2cc;strokeColor=#d6b656;" edge="1" parent="1" source="ZoZdUlyOZkNPBXaQTwTG-2" target="MGR4saQOaBrWju6GWBrJ-22">
          <mxGeometry width="50" height="50" relative="1" as="geometry">
            <mxPoint x="840" y="430" as="sourcePoint" />
            <mxPoint x="925" y="490" as="targetPoint" />
          </mxGeometry>
        </mxCell>
        <mxCell id="MGR4saQOaBrWju6GWBrJ-50" value="" style="endArrow=none;html=1;rounded=0;entryX=0.5;entryY=0;entryDx=0;entryDy=0;exitX=0.75;exitY=1;exitDx=0;exitDy=0;fontSize=12;fillColor=#fff2cc;strokeColor=#d6b656;" edge="1" parent="1" target="MGR4saQOaBrWju6GWBrJ-23">
          <mxGeometry width="50" height="50" relative="1" as="geometry">
            <mxPoint x="761.5" y="420" as="sourcePoint" />
            <mxPoint x="768.5" y="480" as="targetPoint" />
          </mxGeometry>
        </mxCell>
        <mxCell id="MGR4saQOaBrWju6GWBrJ-51" value="marital status" style="ellipse;whiteSpace=wrap;html=1;fontSize=12;fillColor=#fff2cc;strokeColor=#d6b656;" vertex="1" parent="1">
          <mxGeometry x="990" y="250" width="70" height="40" as="geometry" />
        </mxCell>
        <mxCell id="MGR4saQOaBrWju6GWBrJ-52" value="" style="endArrow=none;html=1;rounded=0;entryX=0;entryY=0.5;entryDx=0;entryDy=0;exitX=0.839;exitY=-0.054;exitDx=0;exitDy=0;exitPerimeter=0;fontSize=12;fillColor=#fff2cc;strokeColor=#d6b656;" edge="1" parent="1" source="ZoZdUlyOZkNPBXaQTwTG-2" target="MGR4saQOaBrWju6GWBrJ-51">
          <mxGeometry width="50" height="50" relative="1" as="geometry">
            <mxPoint x="808" y="390" as="sourcePoint" />
            <mxPoint x="880" y="310" as="targetPoint" />
          </mxGeometry>
        </mxCell>
        <mxCell id="MGR4saQOaBrWju6GWBrJ-53" value="occupation" style="ellipse;whiteSpace=wrap;html=1;fontSize=12;fillColor=#fff2cc;strokeColor=#d6b656;" vertex="1" parent="1">
          <mxGeometry x="1070" y="405" width="100" height="40" as="geometry" />
        </mxCell>
        <mxCell id="MGR4saQOaBrWju6GWBrJ-54" value="" style="endArrow=none;html=1;rounded=0;exitX=0;exitY=0.5;exitDx=0;exitDy=0;entryX=1;entryY=0.75;entryDx=0;entryDy=0;fontSize=12;fillColor=#fff2cc;strokeColor=#d6b656;" edge="1" parent="1" source="MGR4saQOaBrWju6GWBrJ-53" target="ZoZdUlyOZkNPBXaQTwTG-2">
          <mxGeometry width="50" height="50" relative="1" as="geometry">
            <mxPoint x="770" y="420" as="sourcePoint" />
            <mxPoint x="820" y="370" as="targetPoint" />
          </mxGeometry>
        </mxCell>
        <mxCell id="MGR4saQOaBrWju6GWBrJ-55" value="" style="endArrow=none;html=1;rounded=0;exitX=1;exitY=0;exitDx=0;exitDy=0;fontSize=12;fillColor=#fff2cc;strokeColor=#d6b656;" edge="1" parent="1" source="MGR4saQOaBrWju6GWBrJ-34">
          <mxGeometry width="50" height="50" relative="1" as="geometry">
            <mxPoint x="340" y="900" as="sourcePoint" />
            <mxPoint x="390" y="850" as="targetPoint" />
          </mxGeometry>
        </mxCell>
        <mxCell id="MGR4saQOaBrWju6GWBrJ-56" value="" style="endArrow=none;html=1;rounded=0;exitX=0.329;exitY=0.021;exitDx=0;exitDy=0;exitPerimeter=0;fontSize=12;fillColor=#fff2cc;strokeColor=#d6b656;" edge="1" parent="1" source="MGR4saQOaBrWju6GWBrJ-35" target="MGR4saQOaBrWju6GWBrJ-3">
          <mxGeometry width="50" height="50" relative="1" as="geometry">
            <mxPoint x="320" y="897" as="sourcePoint" />
            <mxPoint x="400" y="860" as="targetPoint" />
          </mxGeometry>
        </mxCell>
        <mxCell id="MGR4saQOaBrWju6GWBrJ-57" value="" style="endArrow=none;html=1;rounded=0;entryX=0.5;entryY=1;entryDx=0;entryDy=0;fontSize=12;fillColor=#fff2cc;strokeColor=#d6b656;" edge="1" parent="1" source="MGR4saQOaBrWju6GWBrJ-38" target="MGR4saQOaBrWju6GWBrJ-3">
          <mxGeometry width="50" height="50" relative="1" as="geometry">
            <mxPoint x="363" y="951" as="sourcePoint" />
            <mxPoint x="431" y="860" as="targetPoint" />
          </mxGeometry>
        </mxCell>
        <mxCell id="MGR4saQOaBrWju6GWBrJ-58" value="" style="endArrow=none;html=1;rounded=0;fontSize=12;fillColor=#fff2cc;strokeColor=#d6b656;" edge="1" parent="1" source="MGR4saQOaBrWju6GWBrJ-39" target="MGR4saQOaBrWju6GWBrJ-3">
          <mxGeometry width="50" height="50" relative="1" as="geometry">
            <mxPoint x="505" y="951" as="sourcePoint" />
            <mxPoint x="450" y="860" as="targetPoint" />
          </mxGeometry>
        </mxCell>
        <mxCell id="MGR4saQOaBrWju6GWBrJ-59" style="edgeStyle=orthogonalEdgeStyle;rounded=0;orthogonalLoop=1;jettySize=auto;html=1;exitX=0.5;exitY=1;exitDx=0;exitDy=0;fontSize=12;fillColor=#fff2cc;strokeColor=#d6b656;" edge="1" parent="1">
          <mxGeometry relative="1" as="geometry">
            <mxPoint x="855" y="810" as="sourcePoint" />
            <mxPoint x="855" y="810" as="targetPoint" />
          </mxGeometry>
        </mxCell>
        <mxCell id="MGR4saQOaBrWju6GWBrJ-60" value="Name" style="ellipse;whiteSpace=wrap;html=1;fontSize=12;fillColor=#fff2cc;strokeColor=#d6b656;" vertex="1" parent="1">
          <mxGeometry x="790" y="650" width="70" height="40" as="geometry" />
        </mxCell>
        <mxCell id="MGR4saQOaBrWju6GWBrJ-61" value="Father Name" style="ellipse;whiteSpace=wrap;html=1;fontSize=12;fillColor=#fff2cc;strokeColor=#d6b656;" vertex="1" parent="1">
          <mxGeometry x="880" y="620" width="70" height="40" as="geometry" />
        </mxCell>
        <mxCell id="MGR4saQOaBrWju6GWBrJ-62" value="Mother Name" style="ellipse;whiteSpace=wrap;html=1;fontSize=12;fillColor=#fff2cc;strokeColor=#d6b656;" vertex="1" parent="1">
          <mxGeometry x="980" y="620" width="70" height="40" as="geometry" />
        </mxCell>
        <mxCell id="MGR4saQOaBrWju6GWBrJ-63" value="Pan No" style="ellipse;whiteSpace=wrap;html=1;fontSize=12;fillColor=#fff2cc;strokeColor=#d6b656;" vertex="1" parent="1">
          <mxGeometry x="1130" y="680" width="70" height="40" as="geometry" />
        </mxCell>
        <mxCell id="MGR4saQOaBrWju6GWBrJ-64" value="Aadhar No" style="ellipse;whiteSpace=wrap;html=1;fontSize=12;fillColor=#fff2cc;strokeColor=#d6b656;" vertex="1" parent="1">
          <mxGeometry x="1150" y="740" width="70" height="40" as="geometry" />
        </mxCell>
        <mxCell id="MGR4saQOaBrWju6GWBrJ-65" value="Phone No" style="ellipse;whiteSpace=wrap;html=1;fontSize=12;fillColor=#fff2cc;strokeColor=#d6b656;" vertex="1" parent="1">
          <mxGeometry x="1050" y="880" width="70" height="40" as="geometry" />
        </mxCell>
        <mxCell id="MGR4saQOaBrWju6GWBrJ-66" value="Email" style="ellipse;whiteSpace=wrap;html=1;fontSize=12;fillColor=#fff2cc;strokeColor=#d6b656;" vertex="1" parent="1">
          <mxGeometry x="960" y="890" width="70" height="40" as="geometry" />
        </mxCell>
        <mxCell id="MGR4saQOaBrWju6GWBrJ-67" value="DOB" style="ellipse;whiteSpace=wrap;html=1;fontSize=12;fillColor=#fff2cc;strokeColor=#d6b656;" vertex="1" parent="1">
          <mxGeometry x="880" y="910" width="70" height="40" as="geometry" />
        </mxCell>
        <mxCell id="MGR4saQOaBrWju6GWBrJ-68" value="Address" style="ellipse;whiteSpace=wrap;html=1;fontSize=12;fillColor=#fff2cc;strokeColor=#d6b656;" vertex="1" parent="1">
          <mxGeometry x="1120" y="850" width="70" height="40" as="geometry" />
        </mxCell>
        <mxCell id="MGR4saQOaBrWju6GWBrJ-69" value="" style="endArrow=none;html=1;rounded=0;entryX=0;entryY=1;entryDx=0;entryDy=0;exitX=0.25;exitY=0;exitDx=0;exitDy=0;fontSize=12;fillColor=#fff2cc;strokeColor=#d6b656;" edge="1" target="MGR4saQOaBrWju6GWBrJ-60" parent="1">
          <mxGeometry width="50" height="50" relative="1" as="geometry">
            <mxPoint x="813" y="770" as="sourcePoint" />
            <mxPoint x="710" y="730" as="targetPoint" />
          </mxGeometry>
        </mxCell>
        <mxCell id="MGR4saQOaBrWju6GWBrJ-70" value="" style="endArrow=none;html=1;rounded=0;entryX=0;entryY=1;entryDx=0;entryDy=0;fontSize=12;fillColor=#fff2cc;strokeColor=#d6b656;" edge="1" target="MGR4saQOaBrWju6GWBrJ-61" parent="1">
          <mxGeometry width="50" height="50" relative="1" as="geometry">
            <mxPoint x="840" y="770" as="sourcePoint" />
            <mxPoint x="871" y="694" as="targetPoint" />
          </mxGeometry>
        </mxCell>
        <mxCell id="MGR4saQOaBrWju6GWBrJ-71" value="" style="endArrow=none;html=1;rounded=0;entryX=0;entryY=0.5;entryDx=0;entryDy=0;exitX=0.636;exitY=-0.006;exitDx=0;exitDy=0;exitPerimeter=0;fontSize=12;fillColor=#fff2cc;strokeColor=#d6b656;" edge="1" target="MGR4saQOaBrWju6GWBrJ-62" parent="1">
          <mxGeometry width="50" height="50" relative="1" as="geometry">
            <mxPoint x="878" y="770" as="sourcePoint" />
            <mxPoint x="951" y="684" as="targetPoint" />
          </mxGeometry>
        </mxCell>
        <mxCell id="MGR4saQOaBrWju6GWBrJ-72" value="" style="endArrow=none;html=1;rounded=0;entryX=0;entryY=0.5;entryDx=0;entryDy=0;fontSize=12;fillColor=#fff2cc;strokeColor=#d6b656;" edge="1" target="MGR4saQOaBrWju6GWBrJ-63" parent="1">
          <mxGeometry width="50" height="50" relative="1" as="geometry">
            <mxPoint x="910" y="770" as="sourcePoint" />
            <mxPoint x="1020" y="690" as="targetPoint" />
          </mxGeometry>
        </mxCell>
        <mxCell id="MGR4saQOaBrWju6GWBrJ-73" value="" style="endArrow=none;html=1;rounded=0;entryX=0.011;entryY=0.322;entryDx=0;entryDy=0;entryPerimeter=0;exitX=1;exitY=0.5;exitDx=0;exitDy=0;fontSize=12;fillColor=#fff2cc;strokeColor=#d6b656;" edge="1" target="MGR4saQOaBrWju6GWBrJ-64" parent="1">
          <mxGeometry width="50" height="50" relative="1" as="geometry">
            <mxPoint x="940" y="790" as="sourcePoint" />
            <mxPoint x="1070" y="750" as="targetPoint" />
          </mxGeometry>
        </mxCell>
        <mxCell id="MGR4saQOaBrWju6GWBrJ-74" value="" style="endArrow=none;html=1;rounded=0;entryX=0;entryY=0;entryDx=0;entryDy=0;exitX=1;exitY=1;exitDx=0;exitDy=0;fontSize=12;fillColor=#fff2cc;strokeColor=#d6b656;" edge="1" target="MGR4saQOaBrWju6GWBrJ-68" parent="1">
          <mxGeometry width="50" height="50" relative="1" as="geometry">
            <mxPoint x="940" y="810" as="sourcePoint" />
            <mxPoint x="1081" y="813" as="targetPoint" />
          </mxGeometry>
        </mxCell>
        <mxCell id="MGR4saQOaBrWju6GWBrJ-75" value="" style="endArrow=none;html=1;rounded=0;entryX=0.5;entryY=0;entryDx=0;entryDy=0;exitX=0.824;exitY=1;exitDx=0;exitDy=0;exitPerimeter=0;fontSize=12;fillColor=#fff2cc;strokeColor=#d6b656;" edge="1" target="MGR4saQOaBrWju6GWBrJ-65" parent="1">
          <mxGeometry width="50" height="50" relative="1" as="geometry">
            <mxPoint x="910" y="810" as="sourcePoint" />
            <mxPoint x="1071" y="866" as="targetPoint" />
          </mxGeometry>
        </mxCell>
        <mxCell id="MGR4saQOaBrWju6GWBrJ-76" value="" style="endArrow=none;html=1;rounded=0;entryX=0.5;entryY=0;entryDx=0;entryDy=0;exitX=0.75;exitY=1;exitDx=0;exitDy=0;fontSize=12;fillColor=#fff2cc;strokeColor=#d6b656;" edge="1" target="MGR4saQOaBrWju6GWBrJ-66" parent="1">
          <mxGeometry width="50" height="50" relative="1" as="geometry">
            <mxPoint x="897" y="810" as="sourcePoint" />
            <mxPoint x="1005" y="880" as="targetPoint" />
          </mxGeometry>
        </mxCell>
        <mxCell id="MGR4saQOaBrWju6GWBrJ-77" value="" style="endArrow=none;html=1;rounded=0;entryX=0.5;entryY=0;entryDx=0;entryDy=0;exitX=0.75;exitY=1;exitDx=0;exitDy=0;fontSize=12;fillColor=#fff2cc;strokeColor=#d6b656;" edge="1" target="MGR4saQOaBrWju6GWBrJ-67" parent="1">
          <mxGeometry width="50" height="50" relative="1" as="geometry">
            <mxPoint x="841.5" y="810" as="sourcePoint" />
            <mxPoint x="848.5" y="870" as="targetPoint" />
          </mxGeometry>
        </mxCell>
        <mxCell id="MGR4saQOaBrWju6GWBrJ-78" value="marital status" style="ellipse;whiteSpace=wrap;html=1;fontSize=12;fillColor=#fff2cc;strokeColor=#d6b656;" vertex="1" parent="1">
          <mxGeometry x="1070" y="640" width="70" height="40" as="geometry" />
        </mxCell>
        <mxCell id="MGR4saQOaBrWju6GWBrJ-79" value="" style="endArrow=none;html=1;rounded=0;entryX=0;entryY=0.5;entryDx=0;entryDy=0;exitX=0.839;exitY=-0.054;exitDx=0;exitDy=0;exitPerimeter=0;fontSize=12;fillColor=#fff2cc;strokeColor=#d6b656;" edge="1" target="MGR4saQOaBrWju6GWBrJ-78" parent="1">
          <mxGeometry width="50" height="50" relative="1" as="geometry">
            <mxPoint x="913" y="768" as="sourcePoint" />
            <mxPoint x="960" y="700" as="targetPoint" />
          </mxGeometry>
        </mxCell>
        <mxCell id="MGR4saQOaBrWju6GWBrJ-80" value="Education" style="ellipse;whiteSpace=wrap;html=1;fontSize=12;fillColor=#fff2cc;strokeColor=#d6b656;" vertex="1" parent="1">
          <mxGeometry x="1150" y="795" width="100" height="40" as="geometry" />
        </mxCell>
        <mxCell id="MGR4saQOaBrWju6GWBrJ-81" value="" style="endArrow=none;html=1;rounded=0;exitX=0;exitY=0.5;exitDx=0;exitDy=0;entryX=1;entryY=0.75;entryDx=0;entryDy=0;fontSize=12;fillColor=#fff2cc;strokeColor=#d6b656;" edge="1" source="MGR4saQOaBrWju6GWBrJ-80" parent="1">
          <mxGeometry width="50" height="50" relative="1" as="geometry">
            <mxPoint x="850" y="810" as="sourcePoint" />
            <mxPoint x="940" y="800" as="targetPoint" />
          </mxGeometry>
        </mxCell>
        <mxCell id="MGR4saQOaBrWju6GWBrJ-82" value="Emp_ID" style="ellipse;whiteSpace=wrap;html=1;fontSize=12;fillColor=#fff2cc;strokeColor=#d6b656;" vertex="1" parent="1">
          <mxGeometry x="-50" y="810" width="70" height="50" as="geometry" />
        </mxCell>
        <mxCell id="MGR4saQOaBrWju6GWBrJ-83" value="Joining Date" style="ellipse;whiteSpace=wrap;html=1;fontSize=12;fillColor=#fff2cc;strokeColor=#d6b656;" vertex="1" parent="1">
          <mxGeometry x="39" y="840" width="90" height="50" as="geometry" />
        </mxCell>
        <mxCell id="MGR4saQOaBrWju6GWBrJ-84" value="Postition" style="ellipse;whiteSpace=wrap;html=1;fontSize=12;fillColor=#fff2cc;strokeColor=#d6b656;" vertex="1" parent="1">
          <mxGeometry x="-71" y="745" width="70" height="50" as="geometry" />
        </mxCell>
        <mxCell id="MGR4saQOaBrWju6GWBrJ-85" value="" style="endArrow=none;html=1;rounded=0;entryX=0;entryY=0.75;entryDx=0;entryDy=0;exitX=1;exitY=0.5;exitDx=0;exitDy=0;fontSize=12;fillColor=#fff2cc;strokeColor=#d6b656;" edge="1" parent="1" source="MGR4saQOaBrWju6GWBrJ-84" target="ZoZdUlyOZkNPBXaQTwTG-3">
          <mxGeometry width="50" height="50" relative="1" as="geometry">
            <mxPoint x="49" y="810" as="sourcePoint" />
            <mxPoint x="99" y="760" as="targetPoint" />
          </mxGeometry>
        </mxCell>
        <mxCell id="MGR4saQOaBrWju6GWBrJ-86" value="" style="endArrow=none;html=1;rounded=0;entryX=0.181;entryY=1;entryDx=0;entryDy=0;exitX=1;exitY=0;exitDx=0;exitDy=0;entryPerimeter=0;fontSize=12;fillColor=#fff2cc;strokeColor=#d6b656;" edge="1" parent="1" source="MGR4saQOaBrWju6GWBrJ-82" target="ZoZdUlyOZkNPBXaQTwTG-3">
          <mxGeometry width="50" height="50" relative="1" as="geometry">
            <mxPoint x="9" y="780" as="sourcePoint" />
            <mxPoint x="100" y="730" as="targetPoint" />
          </mxGeometry>
        </mxCell>
        <mxCell id="MGR4saQOaBrWju6GWBrJ-87" value="" style="endArrow=none;html=1;rounded=0;entryX=0.367;entryY=1.034;entryDx=0;entryDy=0;exitX=0.5;exitY=0;exitDx=0;exitDy=0;entryPerimeter=0;fontSize=12;fillColor=#fff2cc;strokeColor=#d6b656;" edge="1" parent="1" source="MGR4saQOaBrWju6GWBrJ-83" target="ZoZdUlyOZkNPBXaQTwTG-3">
          <mxGeometry width="50" height="50" relative="1" as="geometry">
            <mxPoint x="20" y="827" as="sourcePoint" />
            <mxPoint x="129" y="740" as="targetPoint" />
          </mxGeometry>
        </mxCell>
        <mxCell id="MGR4saQOaBrWju6GWBrJ-88" value="Service" style="rhombus;whiteSpace=wrap;html=1;rounded=0;fontSize=12;fillColor=#e1d5e7;strokeColor=#9673a6;" vertex="1" parent="1">
          <mxGeometry x="170" y="510" width="80" height="80" as="geometry" />
        </mxCell>
        <mxCell id="MGR4saQOaBrWju6GWBrJ-91" value="Account Opening" style="ellipse;whiteSpace=wrap;html=1;fontSize=12;fillColor=#fff2cc;strokeColor=#d6b656;" vertex="1" parent="1">
          <mxGeometry x="290" y="490" width="70" height="50" as="geometry" />
        </mxCell>
        <mxCell id="MGR4saQOaBrWju6GWBrJ-92" value="Account Maintainence" style="ellipse;whiteSpace=wrap;html=1;fontSize=12;fillColor=#fff2cc;strokeColor=#d6b656;" vertex="1" parent="1">
          <mxGeometry x="280" y="550" width="90" height="50" as="geometry" />
        </mxCell>
        <mxCell id="MGR4saQOaBrWju6GWBrJ-93" value="" style="endArrow=none;html=1;rounded=0;entryX=0.004;entryY=0.293;entryDx=0;entryDy=0;entryPerimeter=0;exitX=1;exitY=0;exitDx=0;exitDy=0;fontSize=12;fillColor=#fff2cc;strokeColor=#d6b656;" edge="1" parent="1" source="MGR4saQOaBrWju6GWBrJ-88" target="MGR4saQOaBrWju6GWBrJ-91">
          <mxGeometry width="50" height="50" relative="1" as="geometry">
            <mxPoint x="230" y="505" as="sourcePoint" />
            <mxPoint x="280" y="490" as="targetPoint" />
          </mxGeometry>
        </mxCell>
        <mxCell id="MGR4saQOaBrWju6GWBrJ-94" value="" style="endArrow=none;html=1;rounded=0;entryX=0;entryY=0.5;entryDx=0;entryDy=0;exitX=1;exitY=1;exitDx=0;exitDy=0;fontSize=12;fillColor=#fff2cc;strokeColor=#d6b656;" edge="1" parent="1" source="MGR4saQOaBrWju6GWBrJ-88" target="MGR4saQOaBrWju6GWBrJ-92">
          <mxGeometry width="50" height="50" relative="1" as="geometry">
            <mxPoint x="220" y="590" as="sourcePoint" />
            <mxPoint x="290" y="565" as="targetPoint" />
          </mxGeometry>
        </mxCell>
        <mxCell id="MGR4saQOaBrWju6GWBrJ-95" value="" style="endArrow=none;html=1;rounded=0;entryX=0.426;entryY=0.958;entryDx=0;entryDy=0;entryPerimeter=0;exitX=0.5;exitY=0;exitDx=0;exitDy=0;fontSize=12;fillColor=#fff2cc;strokeColor=#d6b656;" edge="1" parent="1" source="MGR4saQOaBrWju6GWBrJ-88" target="ZoZdUlyOZkNPBXaQTwTG-1">
          <mxGeometry width="50" height="50" relative="1" as="geometry">
            <mxPoint x="60" y="520" as="sourcePoint" />
            <mxPoint x="110" y="470" as="targetPoint" />
          </mxGeometry>
        </mxCell>
        <mxCell id="MGR4saQOaBrWju6GWBrJ-96" value="" style="endArrow=none;html=1;rounded=0;entryX=0.5;entryY=1;entryDx=0;entryDy=0;exitX=0.5;exitY=0;exitDx=0;exitDy=0;fontSize=12;fillColor=#fff2cc;strokeColor=#d6b656;" edge="1" parent="1" source="ZoZdUlyOZkNPBXaQTwTG-3" target="MGR4saQOaBrWju6GWBrJ-88">
          <mxGeometry width="50" height="50" relative="1" as="geometry">
            <mxPoint x="163" y="682" as="sourcePoint" />
            <mxPoint x="150" y="580" as="targetPoint" />
          </mxGeometry>
        </mxCell>
        <mxCell id="MGR4saQOaBrWju6GWBrJ-97" value="Access" style="rhombus;whiteSpace=wrap;html=1;fontSize=12;fillColor=#e1d5e7;strokeColor=#9673a6;" vertex="1" parent="1">
          <mxGeometry x="250" y="730" width="80" height="80" as="geometry" />
        </mxCell>
        <mxCell id="MGR4saQOaBrWju6GWBrJ-98" value="" style="endArrow=none;html=1;rounded=0;entryX=1;entryY=1;entryDx=0;entryDy=0;fontSize=12;fillColor=#fff2cc;strokeColor=#d6b656;" edge="1" parent="1" source="MGR4saQOaBrWju6GWBrJ-97" target="ZoZdUlyOZkNPBXaQTwTG-3">
          <mxGeometry width="50" height="50" relative="1" as="geometry">
            <mxPoint x="150" y="820" as="sourcePoint" />
            <mxPoint x="200" y="770" as="targetPoint" />
          </mxGeometry>
        </mxCell>
        <mxCell id="MGR4saQOaBrWju6GWBrJ-99" value="" style="endArrow=none;html=1;rounded=0;entryX=1;entryY=1;entryDx=0;entryDy=0;exitX=0;exitY=0.5;exitDx=0;exitDy=0;fontSize=12;fillColor=#fff2cc;strokeColor=#d6b656;" edge="1" parent="1" source="MGR4saQOaBrWju6GWBrJ-3" target="MGR4saQOaBrWju6GWBrJ-97">
          <mxGeometry width="50" height="50" relative="1" as="geometry">
            <mxPoint x="276" y="764" as="sourcePoint" />
            <mxPoint x="240" y="740" as="targetPoint" />
          </mxGeometry>
        </mxCell>
        <mxCell id="MGR4saQOaBrWju6GWBrJ-101" value="Details" style="rhombus;whiteSpace=wrap;html=1;fontSize=12;fillColor=#e1d5e7;strokeColor=#9673a6;" vertex="1" parent="1">
          <mxGeometry x="510" y="690" width="80" height="80" as="geometry" />
        </mxCell>
        <mxCell id="MGR4saQOaBrWju6GWBrJ-102" value="" style="endArrow=none;html=1;rounded=0;exitX=1;exitY=0.5;exitDx=0;exitDy=0;entryX=0;entryY=0.5;entryDx=0;entryDy=0;fontSize=12;fillColor=#fff2cc;strokeColor=#d6b656;" edge="1" parent="1" source="ZoZdUlyOZkNPBXaQTwTG-3" target="MGR4saQOaBrWju6GWBrJ-101">
          <mxGeometry width="50" height="50" relative="1" as="geometry">
            <mxPoint x="330" y="720" as="sourcePoint" />
            <mxPoint x="380" y="670" as="targetPoint" />
          </mxGeometry>
        </mxCell>
        <mxCell id="MGR4saQOaBrWju6GWBrJ-103" value="" style="endArrow=none;html=1;rounded=0;exitX=1;exitY=0.5;exitDx=0;exitDy=0;entryX=0;entryY=0.5;entryDx=0;entryDy=0;fontSize=12;fillColor=#fff2cc;strokeColor=#d6b656;" edge="1" parent="1" source="MGR4saQOaBrWju6GWBrJ-101" target="ZoZdUlyOZkNPBXaQTwTG-4">
          <mxGeometry width="50" height="50" relative="1" as="geometry">
            <mxPoint x="240" y="720" as="sourcePoint" />
            <mxPoint x="520" y="740" as="targetPoint" />
          </mxGeometry>
        </mxCell>
        <mxCell id="MGR4saQOaBrWju6GWBrJ-104" value="Access" style="rhombus;whiteSpace=wrap;html=1;fontSize=12;fillColor=#e1d5e7;strokeColor=#9673a6;" vertex="1" parent="1">
          <mxGeometry x="340" y="290" width="80" height="80" as="geometry" />
        </mxCell>
        <mxCell id="MGR4saQOaBrWju6GWBrJ-105" value="" style="endArrow=none;html=1;rounded=0;entryX=0.5;entryY=1;entryDx=0;entryDy=0;fontSize=12;fillColor=#fff2cc;strokeColor=#d6b656;" edge="1" parent="1" source="ZoZdUlyOZkNPBXaQTwTG-1" target="MGR4saQOaBrWju6GWBrJ-104">
          <mxGeometry width="50" height="50" relative="1" as="geometry">
            <mxPoint x="240" y="430" as="sourcePoint" />
            <mxPoint x="310.71067811865476" y="380" as="targetPoint" />
          </mxGeometry>
        </mxCell>
        <mxCell id="MGR4saQOaBrWju6GWBrJ-106" value="" style="endArrow=none;html=1;rounded=0;entryX=0.5;entryY=1;entryDx=0;entryDy=0;exitX=0.5;exitY=0;exitDx=0;exitDy=0;fontSize=12;fillColor=#fff2cc;strokeColor=#d6b656;" edge="1" parent="1" source="MGR4saQOaBrWju6GWBrJ-104" target="MGR4saQOaBrWju6GWBrJ-2">
          <mxGeometry width="50" height="50" relative="1" as="geometry">
            <mxPoint x="250" y="394" as="sourcePoint" />
            <mxPoint x="395" y="400" as="targetPoint" />
          </mxGeometry>
        </mxCell>
        <mxCell id="MGR4saQOaBrWju6GWBrJ-107" value="Details" style="rhombus;whiteSpace=wrap;html=1;fontSize=12;fillColor=#e1d5e7;strokeColor=#9673a6;" vertex="1" parent="1">
          <mxGeometry x="490" y="365" width="80" height="80" as="geometry" />
        </mxCell>
        <mxCell id="MGR4saQOaBrWju6GWBrJ-108" value="" style="endArrow=none;html=1;rounded=0;exitX=1;exitY=0.75;exitDx=0;exitDy=0;entryX=0;entryY=0.5;entryDx=0;entryDy=0;fontSize=12;fillColor=#fff2cc;strokeColor=#d6b656;" edge="1" parent="1" source="ZoZdUlyOZkNPBXaQTwTG-1" target="MGR4saQOaBrWju6GWBrJ-107">
          <mxGeometry width="50" height="50" relative="1" as="geometry">
            <mxPoint x="350" y="450" as="sourcePoint" />
            <mxPoint x="400" y="400" as="targetPoint" />
          </mxGeometry>
        </mxCell>
        <mxCell id="MGR4saQOaBrWju6GWBrJ-109" value="" style="endArrow=none;html=1;rounded=0;exitX=1;exitY=0.5;exitDx=0;exitDy=0;entryX=0;entryY=0.25;entryDx=0;entryDy=0;fontSize=12;fillColor=#fff2cc;strokeColor=#d6b656;" edge="1" parent="1" source="MGR4saQOaBrWju6GWBrJ-107" target="ZoZdUlyOZkNPBXaQTwTG-2">
          <mxGeometry width="50" height="50" relative="1" as="geometry">
            <mxPoint x="425" y="370" as="sourcePoint" />
            <mxPoint x="675" y="385" as="targetPoint" />
          </mxGeometry>
        </mxCell>
      </root>
    </mxGraphModel>
  </diagram>
</mxfile>
